<svg xmlns="http://www.w3.org/2000/svg" viewBox="0 0 600 700" xmlns:c2pa="http://c2pa.org/manifest"><metadata><c2pa:manifest>AAAWgmp1bWIAAAAeanVtZGMycGEAEQAQgAAAqgA4m3EDYzJwYQAAABZcanVtYgAAAEdqdW1kYzJtYQARABCAAACqADibcQN1cm46YzJwYTplMDUzMWRjNi1lNDNjLTQ2N2EtYWFhNS00ZjNkZDBhZGFiMzUAAAADl2p1bWIAAAApanVtZGMyYXMAEQAQgAAAqgA4m3EDYzJwYS5hc3NlcnRpb25zAAAAALxqdW1iAAAARGp1bWRjYm9yABEAEIAAAKoAOJtxE2MycGEuaW5ncmVkaWVudC52MwAAAAAYYzJzaH9C74yKMM+dT0yFwtQ5sBAAAABwY2JvcqNpZGM6Zm9ybWF0bWltYWdlL3N2Zyt4bWxqaW5zdGFuY2VJRHgseG1wOmlpZDpkMjU5YWVkMC1hMTBkLTRmYzgtOWNhMS1kZjFmYTNmNmIxNGZscmVsYXRpb25zaGlwaHBhcmVudE9mAAAB4mp1bWIAAABBanVtZGNib3IAEQAQgAAAqgA4m3ETYzJwYS5hY3Rpb25zLnYyAAAAABhjMnNoRgWXFpFiqBG4sbJisFLFyAAAAZljYm9yomdhY3Rpb25zgqJmYWN0aW9ua2MycGEub3BlbmVkanBhcmFtZXRlcnOha2luZ3JlZGllbnRzgaJjdXJseC1zZWxmI2p1bWJmPWMycGEuYXNzZXJ0aW9ucy9jMnBhLmluZ3JlZGllbnQudjNkaGFzaFggp29kMixZbnlZIS0rIZ9LLKig3vAc9Kj6nIchrNwrueKkZmFjdGlvbngdY29tLmFudGhyb3BpYy5jbGF1ZGUucHJvdmlkZWRqcGFyYW1ldGVyc6F4H2NvbS5hbnRocm9waWMub3JpZ2luLWNvbmZpZGVuY2VndW5rbm93bmtkZXNjcmlwdGlvbnhmQ2xhdWRlIHByb3ZpZGVkIHRoaXMgZmlsZSBhdCB0aGUgcmVxdWVzdCBvZiBhIHVzZXIgYW5kIG1heSBoYXZlIGNyZWF0ZWQgb3IgbW9kaWZpZWQgdGhlIGZpbGUgY29udGVudHMubXNvZnR3YXJlQWdlbnShZG5hbWVmQ2xhdWRlcmFsbEFjdGlvbnNJbmNsdWRlZPUAAADIanVtYgAAAEBqdW1kY2JvcgARABCAAACqADibcRNjMnBhLmhhc2guZGF0YQAAAAAYYzJzaFCR7MTHaoMbtyl3wIc+gO8AAACAY2JvcqVjYWxnZnNoYTI1NmNwYWRNAAAAAAAAAAAAAAAAAGRoYXNoWCApUSs0fWZ3Xfrz3bVlP9IQHAe+QYYfLOLfIxXGr1TwWGRuYW1lbmp1bWJmIG1hbmlmZXN0amV4Y2x1c2lvbnOBomVzdGFydBh9Zmxlbmd0aBkeBAAAAj5qdW1iAAAAJ2p1bWRjMmNsABEAEIAAAKoAOJtxA2MycGEuY2xhaW0udjIAAAACD2Nib3KlY2FsZ2ZzaGEyNTZpc2lnbmF0dXJleE1zZWxmI2p1bWJmPS9jMnBhL3VybjpjMnBhOmUwNTMxZGM2LWU0M2MtNDY3YS1hYWE1LTRmM2RkMGFkYWIzNS9jMnBhLnNpZ25hdHVyZWppbnN0YW5jZUlEeCx4bXA6aWlkOmIyNmNkNDIyLWI5ZDAtNGZiYS1iNTNkLThiZjgxMTA4NmRlYnJjcmVhdGVkX2Fzc2VydGlvbnODomN1cmx4LXNlbGYjanVtYmY9YzJwYS5hc3NlcnRpb25zL2MycGEuaW5ncmVkaWVudC52M2RoYXNoWCCnb2QyLFlueVkhLSshn0ssqKDe8Bz0qPqchyGs3Cu54qJjdXJseCpzZWxmI2p1bWJmPWMycGEuYXNzZXJ0aW9ucy9jMnBhLmFjdGlvbnMudjJkaGFzaFggkeo1hKFDuJG00cZTG13rw1227965myqJ4YltdWt9zFeiY3VybHgpc2VsZiNqdW1iZj1jMnBhLmFzc2VydGlvbnMvYzJwYS5oYXNoLmRhdGFkaGFzaFgg9jkMf184bw55GQSl/cEz6zXRzVDnMcwI6u9eVnCc1/V0Y2xhaW1fZ2VuZXJhdG9yX2luZm+jZG5hbWVvQW50aHJvcGljIEZpbGVzZ3ZlcnNpb25lMS4wLjBrc3BlY1ZlcnNpb25lMi40LjAAABA4anVtYgAAAChqdW1kYzJjcwARABCAAACqADibcQNjMnBhLnNpZ25hdHVyZQAAABAIY2JvctKEWQISogEmGCFZAgowggIGMIIBjaADAgECAhRA5aAK7sI50L64g/oGQgU9Z1UTADAKBggqhkjOPQQDAzBJMRcwFQYDVQQKEw5BbnRocm9waWMsIFBCQzEuMCwGA1UEAxMlQW50aHJvcGljIENvbnRlbnQgQ3JlZGVudGlhbHMgUm9vdCBDQTAeFw0yNjA4MDcxODQzNTZaFw0yODA4MDYxOTQzNTZaMEQxFzAVBgNVBAoTDkFudGhyb3BpYywgUEJDMSkwJwYDVQQDEyBBbnRocm9waWMgQ2xhdWRlIENvbnRlbnQgU2lnbmluZzBZMBMGByqGSM49AgEGCCqGSM49AwEHA0IABJh6CmvLUBgFFNU0vUKlOVtE6djd17L5SuwX0LemFisBM3dkd/3cyjxFA3Qo5S46fX0/ihY0VZ7mfb9KF703t5OjWDBWMA4GA1UdDwEB/wQEAwIHgDAVBgNVHSUEDjAMBgorBgEEAYPoXgIBMAwGA1UdEwEB/wQCMAAwHwYDVR0jBBgwFoAUzlHiBIFOZFsj+OPEz5o+nMHXXMIwCgYIKoZIzj0EAwMDZwAwZAIwMXMdFJ4BetLLVY7ORuE9noqbbAZOZn/aArXyTwFAZfKrPzxF2vPoJNf1+UCdg1XGAjBwX1zd9WGqYkqmL5SFqw1QySjr1zJfpJM9+1rdDwSPLMOPOjKuiXjoU/pUUeG9RwmhY3BhZFkNngAAAAAAAAAAAAAAAAAAAAAAAAAAAAAAAAAAAAAAAAAAAAAAAAAAAAAAAAAAAAAAAAAAAAAAAAAAAAAAAAAAAAAAAAAAAAAAAAAAAAAAAAAAAAAAAAAAAAAAAAAAAAAAAAAAAAAAAAAAAAAAAAAAAAAAAAAAAAAAAAAAAAAAAAAAAAAAAAAAAAAAAAAAAAAAAAAAAAAAAAAAAAAAAAAAAAAAAAAAAAAAAAAAAAAAAAAAAAAAAAAAAAAAAAAAAAAAAAAAAAAAAAAAAAAAAAAAAAAAAAAAAAAAAAAAAAAAAAAAAAAAAAAAAAAAAAAAAAAAAAAAAAAAAAAAAAAAAAAAAAAAAAAAAAAAAAAAAAAAAAAAAAAAAAAAAAAAAAAAAAAAAAAAAAAAAAAAAAAAAAAAAAAAAAAAAAAAAAAAAAAAAAAAAAAAAAAAAAAAAAAAAAAAAAAAAAAAAAAAAAAAAAAAAAAAAAAAAAAAAAAAAAAAAAAAAAAAAAAAAAAAAAAAAAAAAAAAAAAAAAAAAAAAAAAAAAAAAAAAAAAAAAAAAAAAAAAAAAAAAAAAAAAAAAAAAAAAAAAAAAAAAAAAAAAAAAAAAAAAAAAAAAAAAAAAAAAAAAAAAAAAAAAAAAAAAAAAAAAAAAAAAAAAAAAAAAAAAAAAAAAAAAAAAAAAAAAAAAAAAAAAAAAAAAAAAAAAAAAAAAAAAAAAAAAAAAAAAAAAAAAAAAAAAAAAAAAAAAAAAAAAAAAAAAAAAAAAAAAAAAAAAAAAAAAAAAAAAAAAAAAAAAAAAAAAAAAAAAAAAAAAAAAAAAAAAAAAAAAAAAAAAAAAAAAAAAAAAAAAAAAAAAAAAAAAAAAAAAAAAAAAAAAAAAAAAAAAAAAAAAAAAAAAAAAAAAAAAAAAAAAAAAAAAAAAAAAAAAAAAAAAAAAAAAAAAAAAAAAAAAAAAAAAAAAAAAAAAAAAAAAAAAAAAAAAAAAAAAAAAAAAAAAAAAAAAAAAAAAAAAAAAAAAAAAAAAAAAAAAAAAAAAAAAAAAAAAAAAAAAAAAAAAAAAAAAAAAAAAAAAAAAAAAAAAAAAAAAAAAAAAAAAAAAAAAAAAAAAAAAAAAAAAAAAAAAAAAAAAAAAAAAAAAAAAAAAAAAAAAAAAAAAAAAAAAAAAAAAAAAAAAAAAAAAAAAAAAAAAAAAAAAAAAAAAAAAAAAAAAAAAAAAAAAAAAAAAAAAAAAAAAAAAAAAAAAAAAAAAAAAAAAAAAAAAAAAAAAAAAAAAAAAAAAAAAAAAAAAAAAAAAAAAAAAAAAAAAAAAAAAAAAAAAAAAAAAAAAAAAAAAAAAAAAAAAAAAAAAAAAAAAAAAAAAAAAAAAAAAAAAAAAAAAAAAAAAAAAAAAAAAAAAAAAAAAAAAAAAAAAAAAAAAAAAAAAAAAAAAAAAAAAAAAAAAAAAAAAAAAAAAAAAAAAAAAAAAAAAAAAAAAAAAAAAAAAAAAAAAAAAAAAAAAAAAAAAAAAAAAAAAAAAAAAAAAAAAAAAAAAAAAAAAAAAAAAAAAAAAAAAAAAAAAAAAAAAAAAAAAAAAAAAAAAAAAAAAAAAAAAAAAAAAAAAAAAAAAAAAAAAAAAAAAAAAAAAAAAAAAAAAAAAAAAAAAAAAAAAAAAAAAAAAAAAAAAAAAAAAAAAAAAAAAAAAAAAAAAAAAAAAAAAAAAAAAAAAAAAAAAAAAAAAAAAAAAAAAAAAAAAAAAAAAAAAAAAAAAAAAAAAAAAAAAAAAAAAAAAAAAAAAAAAAAAAAAAAAAAAAAAAAAAAAAAAAAAAAAAAAAAAAAAAAAAAAAAAAAAAAAAAAAAAAAAAAAAAAAAAAAAAAAAAAAAAAAAAAAAAAAAAAAAAAAAAAAAAAAAAAAAAAAAAAAAAAAAAAAAAAAAAAAAAAAAAAAAAAAAAAAAAAAAAAAAAAAAAAAAAAAAAAAAAAAAAAAAAAAAAAAAAAAAAAAAAAAAAAAAAAAAAAAAAAAAAAAAAAAAAAAAAAAAAAAAAAAAAAAAAAAAAAAAAAAAAAAAAAAAAAAAAAAAAAAAAAAAAAAAAAAAAAAAAAAAAAAAAAAAAAAAAAAAAAAAAAAAAAAAAAAAAAAAAAAAAAAAAAAAAAAAAAAAAAAAAAAAAAAAAAAAAAAAAAAAAAAAAAAAAAAAAAAAAAAAAAAAAAAAAAAAAAAAAAAAAAAAAAAAAAAAAAAAAAAAAAAAAAAAAAAAAAAAAAAAAAAAAAAAAAAAAAAAAAAAAAAAAAAAAAAAAAAAAAAAAAAAAAAAAAAAAAAAAAAAAAAAAAAAAAAAAAAAAAAAAAAAAAAAAAAAAAAAAAAAAAAAAAAAAAAAAAAAAAAAAAAAAAAAAAAAAAAAAAAAAAAAAAAAAAAAAAAAAAAAAAAAAAAAAAAAAAAAAAAAAAAAAAAAAAAAAAAAAAAAAAAAAAAAAAAAAAAAAAAAAAAAAAAAAAAAAAAAAAAAAAAAAAAAAAAAAAAAAAAAAAAAAAAAAAAAAAAAAAAAAAAAAAAAAAAAAAAAAAAAAAAAAAAAAAAAAAAAAAAAAAAAAAAAAAAAAAAAAAAAAAAAAAAAAAAAAAAAAAAAAAAAAAAAAAAAAAAAAAAAAAAAAAAAAAAAAAAAAAAAAAAAAAAAAAAAAAAAAAAAAAAAAAAAAAAAAAAAAAAAAAAAAAAAAAAAAAAAAAAAAAAAAAAAAAAAAAAAAAAAAAAAAAAAAAAAAAAAAAAAAAAAAAAAAAAAAAAAAAAAAAAAAAAAAAAAAAAAAAAAAAAAAAAAAAAAAAAAAAAAAAAAAAAAAAAAAAAAAAAAAAAAAAAAAAAAAAAAAAAAAAAAAAAAAAAAAAAAAAAAAAAAAAAAAAAAAAAAAAAAAAAAAAAAAAAAAAAAAAAAAAAAAAAAAAAAAAAAAAAAAAAAAAAAAAAAAAAAAAAAAAAAAAAAAAAAAAAAAAAAAAAAAAAAAAAAAAAAAAAAAAAAAAAAAAAAAAAAAAAAAAAAAAAAAAAAAAAAAAAAAAAAAAAAAAAAAAAAAAAAAAAAAAAAAAAAAAAAAAAAAAAAAAAAAAAAAAAAAAAAAAAAAAAAAAAAAAAAAAAAAAAAAAAAAAAAAAAAAAAAAAAAAAAAAAAAAAAAAAAAAAAAAAAAAAAAAAAAAAAAAAAAAAAAAAAAAAAAAAAAAAAAAAAAAAAAAAAAAAAAAAAAAAAAAAAAAAAAAAAAAAAAAAAAAAAAAAAAAAAAAAAAAAAAAAAAAAAAAAAAAAAAAAAAAAAAAAAAAAAAAAAAAAAAAAAAAAAAAAAAAAAAAAAAAAAAAAAAAAAAAAAAAAAAAAAAAAAAAAAAAAAAAAAAAAAAAAAAAAAAAAAAAAAAAAAAAAAAAAAAAAAAAAAAAAAAAAAAAAAAAAAAAAAAAAAAAAAAAAAAAAAAAAAAAAAAAAAAAAAAAAAAAAAAAAAAAAAAAAAAAAAAAAAAAAAAAAAAAAAAAAAAAAAAAAAAAAAAAAAAAAAAAAAAAAAAAAAAAAAAAAAAAAAAAAAAAAAAAAAAAAAAAAAAAAAAAAAAAAAAAAAAAAAAAAAAAAAAAAAAAAAAAAAAAAAAAAAAAAAAAAAAAAAAAAAAAAAAAAAAAAAAAAAAAAAAAAAAAAAAAAAAAAAAAAAAAAAAAAAAAAAAAAAAAAAAAAAAAAAAAAAAAAAAAAAAAAAAAAAAAAAAAAAAAAAAAAAAAAAAAAAAAAAAAAAAAAAAAAAAAAAAAAAAAAAAAAAAAAAAAAAAAAAAAAAAAAAAAAAAAAAAAAAAAAAAAAAAAAAAAAAAAAAAAAAAAAAAAAAAAAAAAAAAAAAAAAAAAAAAAAAAAAAAAAAAAAAAAAAAAAAAAAAAAAAAAAAAAAAAAAAAAAAAAAAAAAAAAAAAAAAAAAAAAAAAAAAAAAAAAAAAAAAAAAAAAAAAAAAAAAAAAAAAAAAAAAAAAAAAAAAAAAAAAAAAAAAAAAAAAAAAAAAAAAAAAAAAAAAAAAAAAAAAAAAAAAAAAAAAAAAAAAAAAAAAAAAAAAAAAAAAAAAAAAAAAAAAAAAAAAAAAAAAAAAAAAAAAAAAAAAAAAAAAAAAAAAAAAAAAAAAAAAAAAAAAAAAAAAAAAAAAAAAAAAAAAAAAAAAAAAAAAAAAAAAAAAAAAAAAAAAAAAAAAAAAAAAAAAAAAAAAAAAAAAAAAAAAAAAAAAAAAAAAAAAAAAAAAAAAAAAAAAAAAAAAAAAAAAAAAAAAAAAAAAAAAAAAAAAAAAAAAAAAAAAAAAAAAAAAAAAAAAAAAAAAAAAAAAAAAAAAAAAAAAAAAAAAAAAAAAAAAAAAAAAAAAAAAAAAAAAAAAAAAAAAAAAAAAAAAAAAAAAAAAAAAAAAAAAAAAAAAAAAAAAAAAAAAAAAAAAAAAAAAAAAAAAAAAAAAAAAAAAAAAAAAAAAAAAAAAAAAAAAAAAAAAAAAAAAAAAAAAAAAAAAAAAAAAAAAAAAAAAAAAAAAAAAAAAAAAAAAAAAAAAAAAAAAAAAAAAAAAAAAAAAAAAAAAAAAAAAAAAAAAAAAAAAAAAAAAAAAAAAAAAAAAAAAAAAAAAAAAAAAAAAAAAAAAAAAAAAAAAAAAAAAAAAAAAAAAAAAAAAAAAAAAAAAAAAAAAAAAAAAAAAAAAAAAPZYQF8Hje7p5CztbQbhwZjtf8lZRSstv0MuXi2Ft+KQ2oxZUF4iVAWIvhwxSx+AWXKt+WNP5j6z2pYpH9JvXn4Nk2I=</c2pa:manifest></metadata><defs><linearGradient id="g" x1="0" y1="0" x2="0" y2="1"><stop offset="0" stop-color="#DFE8D7"/><stop offset="1" stop-color="#7F9873"/></linearGradient></defs><rect width="600" height="700" fill="url(#g)"/><rect x="0.0986122526687627" y="228.68806530194732" width="22" height="7" rx="3.5" fill="#D8622F" stroke="#2B1C14" stroke-width="2" transform="rotate(156 0.0986122526687627 228.68806530194732)"/><rect x="378.99166223546104" y="56.43359569666609" width="22" height="7" rx="3.5" fill="#E0A94A" stroke="#2B1C14" stroke-width="2" transform="rotate(108 378.99166223546104 56.43359569666609)"/><rect x="592.7621643025252" y="76.84771627040939" width="22" height="7" rx="3.5" fill="#7F9873" stroke="#2B1C14" stroke-width="2" transform="rotate(48 592.7621643025252 76.84771627040939)"/><rect x="377.13048885442805" y="16.0630881861146" width="22" height="7" rx="3.5" fill="#DBA39A" stroke="#2B1C14" stroke-width="2" transform="rotate(163 377.13048885442805 16.0630881861146)"/><rect x="270.1633610158057" y="217.80429632300712" width="22" height="7" rx="3.5" fill="#fff" stroke="#2B1C14" stroke-width="2" transform="rotate(22 270.1633610158057 217.80429632300712)"/><rect x="74.22243602304833" y="28.24111968662642" width="22" height="7" rx="3.5" fill="#D8622F" stroke="#2B1C14" stroke-width="2" transform="rotate(29 74.22243602304833 28.24111968662642)"/><rect x="31.037199511675723" y="121.10609636693546" width="22" height="7" rx="3.5" fill="#E0A94A" stroke="#2B1C14" stroke-width="2" transform="rotate(138 31.037199511675723 121.10609636693546)"/><rect x="253.33617574225" y="110.55284999802376" width="22" height="7" rx="3.5" fill="#7F9873" stroke="#2B1C14" stroke-width="2" transform="rotate(97 253.33617574225 110.55284999802376)"/><rect x="461.70282040801965" y="19.651298792870392" width="22" height="7" rx="3.5" fill="#DBA39A" stroke="#2B1C14" stroke-width="2" transform="rotate(168 461.70282040801965 19.651298792870392)"/><rect x="439.37892496556924" y="220.7959481611829" width="22" height="7" rx="3.5" fill="#fff" stroke="#2B1C14" stroke-width="2" transform="rotate(131 439.37892496556924 220.7959481611829)"/><rect x="70.0424641696934" y="1.84765001844971" width="22" height="7" rx="3.5" fill="#D8622F" stroke="#2B1C14" stroke-width="2" transform="rotate(92 70.0424641696934 1.84765001844971)"/><rect x="598.0528727164739" y="137.3158728877622" width="22" height="7" rx="3.5" fill="#E0A94A" stroke="#2B1C14" stroke-width="2" transform="rotate(161 598.0528727164739 137.3158728877622)"/><rect x="171.24595538305397" y="265.3860614939528" width="22" height="7" rx="3.5" fill="#7F9873" stroke="#2B1C14" stroke-width="2" transform="rotate(146 171.24595538305397 265.3860614939528)"/><rect x="403.26725114289076" y="56.344979282629204" width="22" height="7" rx="3.5" fill="#DBA39A" stroke="#2B1C14" stroke-width="2" transform="rotate(114 403.26725114289076 56.344979282629204)"/><rect x="105.5210497721662" y="246.14176039869977" width="22" height="7" rx="3.5" fill="#fff" stroke="#2B1C14" stroke-width="2" transform="rotate(123 105.5210497721662 246.14176039869977)"/><rect x="315.8421251530955" y="79.29872403819986" width="22" height="7" rx="3.5" fill="#D8622F" stroke="#2B1C14" stroke-width="2" transform="rotate(104 315.8421251530955 79.29872403819986)"/><rect x="436.14558122872637" y="49.39185560186946" width="22" height="7" rx="3.5" fill="#E0A94A" stroke="#2B1C14" stroke-width="2" transform="rotate(17 436.14558122872637 49.39185560186946)"/><rect x="19.420239058984556" y="297.9789321767068" width="22" height="7" rx="3.5" fill="#7F9873" stroke="#2B1C14" stroke-width="2" transform="rotate(139 19.420239058984556 297.9789321767068)"/><rect x="326.7387392589537" y="148.99536261753894" width="22" height="7" rx="3.5" fill="#DBA39A" stroke="#2B1C14" stroke-width="2" transform="rotate(39 326.7387392589537 148.99536261753894)"/><rect x="510.4692105718279" y="28.01104035601534" width="22" height="7" rx="3.5" fill="#fff" stroke="#2B1C14" stroke-width="2" transform="rotate(49 510.4692105718279 28.01104035601534)"/><rect x="598.6289634362929" y="178.49423688766277" width="22" height="7" rx="3.5" fill="#D8622F" stroke="#2B1C14" stroke-width="2" transform="rotate(152 598.6289634362929 178.49423688766277)"/><rect x="419.8150586429122" y="215.84530571282156" width="22" height="7" rx="3.5" fill="#E0A94A" stroke="#2B1C14" stroke-width="2" transform="rotate(67 419.8150586429122 215.84530571282156)"/><rect x="353.42079100824" y="271.61723774467464" width="22" height="7" rx="3.5" fill="#7F9873" stroke="#2B1C14" stroke-width="2" transform="rotate(163 353.42079100824 271.61723774467464)"/><rect x="329.238347676228" y="154.45469718168243" width="22" height="7" rx="3.5" fill="#DBA39A" stroke="#2B1C14" stroke-width="2" transform="rotate(12 329.238347676228 154.45469718168243)"/><rect x="491.23068362997407" y="57.04988448743237" width="22" height="7" rx="3.5" fill="#fff" stroke="#2B1C14" stroke-width="2" transform="rotate(22 491.23068362997407 57.04988448743237)"/><rect x="452.0173943843774" y="228.17370911509437" width="22" height="7" rx="3.5" fill="#D8622F" stroke="#2B1C14" stroke-width="2" transform="rotate(9 452.0173943843774 228.17370911509437)"/><path d="M80 470 H220 L202 640 H98Z" fill="#fff" stroke="#2B1C14" stroke-width="6" stroke-linejoin="round" stroke-linecap="round"/><path d="M88 520 H212" stroke="#C96A2E" stroke-width="10"/><path d="M76 449.7 C70 397.9 109.3 372 150 372 C190.7 372 230 397.9 224 449.7
   C216 461.7 204 447.7 194 459.7 C184 471.7 172 455.7 162 465.7
   C150 477.7 136 457.7 124 463.7 C110 471.7 116 453.7 104 463.7 C92 471.7 86 455.7 76 449.7 Z" fill="#E2924F" stroke="#2B1C14" stroke-width="6" stroke-linejoin="round" stroke-linecap="round"/>
  <path d="M104.12 409 Q135.2 383.1 172.2 394.2" fill="none" stroke="#C96A2E" stroke-width="9" stroke-linecap="round" opacity=".75"/>
  <path d="M109.3 442.3 Q150 416.4 194.4 431.2" fill="none" stroke="#C96A2E" stroke-width="9" stroke-linecap="round" opacity=".55"/>
  <ellipse cx="116.69999999999999" cy="397.9" rx="10.360000000000001" ry="16.28" fill="#fff" opacity=".4" transform="rotate(25 116.69999999999999 397.9)"/>
  <rect x="112.10350775469588" y="409.2278075637015" width="18" height="6" rx="3" fill="#D8622F" stroke="#2B1C14" stroke-width="2" transform="rotate(112 121.10350775469588 412.2278075637015)"/><rect x="141.70138596509236" y="408.54448062875247" width="18" height="6" rx="3" fill="#E0A94A" stroke="#2B1C14" stroke-width="2" transform="rotate(119 150.70138596509236 411.54448062875247)"/><rect x="127.36150763759022" y="393.75183727335815" width="18" height="6" rx="3" fill="#7F9873" stroke="#2B1C14" stroke-width="2" transform="rotate(21 136.36150763759022 396.75183727335815)"/><rect x="103.14386791052887" y="396.5671483269054" width="18" height="6" rx="3" fill="#DBA39A" stroke="#2B1C14" stroke-width="2" transform="rotate(49 112.14386791052887 399.5671483269054)"/><rect x="116.15927128558336" y="392.7157407419986" width="18" height="6" rx="3" fill="#FFFFFF" stroke="#2B1C14" stroke-width="2" transform="rotate(120 125.15927128558336 395.7157407419986)"/><rect x="159.72920960091378" y="388.4073959667584" width="18" height="6" rx="3" fill="#D8622F" stroke="#2B1C14" stroke-width="2" transform="rotate(102 168.72920960091378 391.4073959667584)"/><rect x="133.85339921647514" y="402.62006459927994" width="18" height="6" rx="3" fill="#E0A94A" stroke="#2B1C14" stroke-width="2" transform="rotate(56 142.85339921647514 405.62006459927994)"/><rect x="138.29894602895212" y="376.46278757668495" width="18" height="6" rx="3" fill="#7F9873" stroke="#2B1C14" stroke-width="2" transform="rotate(95 147.29894602895212 379.46278757668495)"/><rect x="168.34578454714477" y="382.1802998743795" width="18" height="6" rx="3" fill="#DBA39A" stroke="#2B1C14" stroke-width="2" transform="rotate(10 177.34578454714477 385.1802998743795)"/><rect x="129.01868849671558" y="388.53434732310393" width="18" height="6" rx="3" fill="#FFFFFF" stroke="#2B1C14" stroke-width="2" transform="rotate(58 138.01868849671558 391.53434732310393)"/><rect x="138.7297304384937" y="397.532329640423" width="18" height="6" rx="3" fill="#D8622F" stroke="#2B1C14" stroke-width="2" transform="rotate(101 147.7297304384937 400.532329640423)"/><rect x="149.8535054097902" y="408.5720603340988" width="18" height="6" rx="3" fill="#E0A94A" stroke="#2B1C14" stroke-width="2" transform="rotate(119 158.8535054097902 411.5720603340988)"/><rect x="141.53423112914328" y="402.5307531480651" width="18" height="6" rx="3" fill="#7F9873" stroke="#2B1C14" stroke-width="2" transform="rotate(94 150.53423112914328 405.5307531480651)"/><rect x="114.7446152482602" y="380.73696890346906" width="18" height="6" rx="3" fill="#DBA39A" stroke="#2B1C14" stroke-width="2" transform="rotate(1 123.7446152482602 383.73696890346906)"/><rect x="124.75140692390153" y="395.23801359090953" width="18" height="6" rx="3" fill="#FFFFFF" stroke="#2B1C14" stroke-width="2" transform="rotate(78 133.75140692390153 398.23801359090953)"/><rect x="151.37636535591616" y="385.82717219925996" width="18" height="6" rx="3" fill="#D8622F" stroke="#2B1C14" stroke-width="2" transform="rotate(119 160.37636535591616 388.82717219925996)"/><path d="M150 376 Q156 346 172 338" fill="none" stroke="#2B1C14" stroke-width="4" stroke-linejoin="round" stroke-linecap="round"/><circle cx="150" cy="374" r="17" fill="#C14A3D" stroke="#2B1C14" stroke-width="5" stroke-linejoin="round" stroke-linecap="round"/><circle cx="145" cy="369" r="4" fill="#fff" opacity=".7"/><path d="M230 470 H370 L352 640 H248Z" fill="#fff" stroke="#2B1C14" stroke-width="6" stroke-linejoin="round" stroke-linecap="round"/><path d="M238 520 H362" stroke="#3F2C20" stroke-width="10"/><path d="M226 449.7 C220 397.9 259.3 372 300 372 C340.7 372 380 397.9 374 449.7
   C366 461.7 354 447.7 344 459.7 C334 471.7 322 455.7 312 465.7
   C300 477.7 286 457.7 274 463.7 C260 471.7 266 453.7 254 463.7 C242 471.7 236 455.7 226 449.7 Z" fill="#7A5A45" stroke="#2B1C14" stroke-width="6" stroke-linejoin="round" stroke-linecap="round"/>
  <path d="M254.12 409 Q285.2 383.1 322.2 394.2" fill="none" stroke="#3F2C20" stroke-width="9" stroke-linecap="round" opacity=".75"/>
  <path d="M259.3 442.3 Q300 416.4 344.4 431.2" fill="none" stroke="#3F2C20" stroke-width="9" stroke-linecap="round" opacity=".55"/>
  <ellipse cx="266.7" cy="397.9" rx="10.360000000000001" ry="16.28" fill="#fff" opacity=".4" transform="rotate(25 266.7 397.9)"/>
  <path d="M300 376 Q306 346 322 338" fill="none" stroke="#2B1C14" stroke-width="4" stroke-linejoin="round" stroke-linecap="round"/><circle cx="300" cy="374" r="17" fill="#C14A3D" stroke="#2B1C14" stroke-width="5" stroke-linejoin="round" stroke-linecap="round"/><circle cx="295" cy="369" r="4" fill="#fff" opacity=".7"/><path d="M380 470 H520 L502 640 H398Z" fill="#fff" stroke="#2B1C14" stroke-width="6" stroke-linejoin="round" stroke-linecap="round"/><path d="M388 520 H512" stroke="#B4685F" stroke-width="10"/><path d="M376 449.7 C370 397.9 409.3 372 450 372 C490.7 372 530 397.9 524 449.7
   C516 461.7 504 447.7 494 459.7 C484 471.7 472 455.7 462 465.7
   C450 477.7 436 457.7 424 463.7 C410 471.7 416 453.7 404 463.7 C392 471.7 386 455.7 376 449.7 Z" fill="#E7C2C6" stroke="#2B1C14" stroke-width="6" stroke-linejoin="round" stroke-linecap="round"/>
  <path d="M404.12 409 Q435.2 383.1 472.2 394.2" fill="none" stroke="#B4685F" stroke-width="9" stroke-linecap="round" opacity=".75"/>
  <path d="M409.3 442.3 Q450 416.4 494.4 431.2" fill="none" stroke="#B4685F" stroke-width="9" stroke-linecap="round" opacity=".55"/>
  <ellipse cx="416.7" cy="397.9" rx="10.360000000000001" ry="16.28" fill="#fff" opacity=".4" transform="rotate(25 416.7 397.9)"/>
  <path d="M464.1168338223353 402.54509810775755 C476.1168338223353 406.54509810775755 474.1168338223353 420.54509810775755 464.1168338223353 422.54509810775755 C454.1168338223353 420.54509810775755 452.1168338223353 406.54509810775755 464.1168338223353 402.54509810775755Z" fill="#B4685F" stroke="#2B1C14" stroke-width="2.5" transform="rotate(15 464.1168338223353 412.54509810775755)"/><path d="M500.32928024318767 390.01810465973875 C512.3292802431877 394.01810465973875 510.32928024318767 408.01810465973875 500.32928024318767 410.01810465973875 C490.32928024318767 408.01810465973875 488.32928024318767 394.01810465973875 500.32928024318767 390.01810465973875Z" fill="#B4685F" stroke="#2B1C14" stroke-width="2.5" transform="rotate(94 500.32928024318767 400.01810465973875)"/><path d="M499.24033921038455 401.71901298039216 C511.24033921038455 405.71901298039216 509.24033921038455 419.71901298039216 499.24033921038455 421.71901298039216 C489.24033921038455 419.71901298039216 487.24033921038455 405.71901298039216 499.24033921038455 401.71901298039216Z" fill="#B4685F" stroke="#2B1C14" stroke-width="2.5" transform="rotate(38 499.24033921038455 411.71901298039216)"/><path d="M441.172222783219 399.5265274844093 C453.172222783219 403.5265274844093 451.172222783219 417.5265274844093 441.172222783219 419.5265274844093 C431.172222783219 417.5265274844093 429.172222783219 403.5265274844093 441.172222783219 399.5265274844093Z" fill="#B4685F" stroke="#2B1C14" stroke-width="2.5" transform="rotate(115 441.172222783219 409.5265274844093)"/><path d="M457.15214882461197 380.54675998762326 C469.15214882461197 384.54675998762326 467.15214882461197 398.54675998762326 457.15214882461197 400.54675998762326 C447.15214882461197 398.54675998762326 445.15214882461197 384.54675998762326 457.15214882461197 380.54675998762326Z" fill="#B4685F" stroke="#2B1C14" stroke-width="2.5" transform="rotate(91 457.15214882461197 390.54675998762326)"/><path d="M465.26586791926417 395.8501970484201 C477.26586791926417 399.8501970484201 475.26586791926417 413.8501970484201 465.26586791926417 415.8501970484201 C455.26586791926417 413.8501970484201 453.26586791926417 399.8501970484201 465.26586791926417 395.8501970484201Z" fill="#B4685F" stroke="#2B1C14" stroke-width="2.5" transform="rotate(29 465.26586791926417 405.8501970484201)"/><path d="M412.4127678901212 390.25702160789496 C424.4127678901212 394.25702160789496 422.4127678901212 408.25702160789496 412.4127678901212 410.25702160789496 C402.4127678901212 408.25702160789496 400.4127678901212 394.25702160789496 412.4127678901212 390.25702160789496Z" fill="#B4685F" stroke="#2B1C14" stroke-width="2.5" transform="rotate(43 412.4127678901212 400.25702160789496)"/><path d="M440.68225766729324 386.5180496816302 C452.68225766729324 390.5180496816302 450.68225766729324 404.5180496816302 440.68225766729324 406.5180496816302 C430.68225766729324 404.5180496816302 428.68225766729324 390.5180496816302 440.68225766729324 386.5180496816302Z" fill="#B4685F" stroke="#2B1C14" stroke-width="2.5" transform="rotate(174 440.68225766729324 396.5180496816302)"/><path d="M452.681447336445 381.9130555448587 C464.681447336445 385.9130555448587 462.681447336445 399.9130555448587 452.681447336445 401.9130555448587 C442.681447336445 399.9130555448587 440.681447336445 385.9130555448587 452.681447336445 381.9130555448587Z" fill="#B4685F" stroke="#2B1C14" stroke-width="2.5" transform="rotate(54 452.681447336445 391.9130555448587)"/><rect x="60" y="640" width="480" height="18" rx="9" fill="#2B1C14" opacity=".18"/></svg>